<?xml version="1.0" encoding="UTF-8" standalone="no"?>
<svg width="34px" height="30px" viewBox="0 0 34 30" version="1.1" xmlns="http://www.w3.org/2000/svg" xmlns:xlink="http://www.w3.org/1999/xlink">
    <!-- Generator: Sketch 3.8.3 (29802) - http://www.bohemiancoding.com/sketch -->
    <title>Fill 1</title>
    <desc>Created with Sketch.</desc>
    <defs></defs>
    <g id="Page-1" stroke="none" stroke-width="1" fill="none" fill-rule="evenodd">
        <g id="Desktop-HD" transform="translate(-362.000000, -1723.000000)" fill="#CFD8DC">
            <g id="Instagram-1" transform="translate(30.000000, 1287.000000)">
                <g id="Group-5-Copy-2" transform="translate(332.000000, 433.000000)">
                    <g id="Page-1" transform="translate(0.000000, 3.727273)">
                        <path d="M30.4260241,20.3192836 L21.0806708,20.3192836 C20.4265113,20.3192836 19.8727577,20.6787927 19.6582542,21.2198291 C19.649887,21.2283382 19.6399986,21.2205382 19.6323921,21.2297564 L16.0101739,25.3439018 L12.3871951,21.21912 C12.3795886,21.2099018 12.3697001,21.2304655 12.361333,21.2212473 C12.1468295,20.6802109 11.5938365,20.3192836 10.9389163,20.3192836 L3.04260241,20.3192836 L3.04260241,2.59201091 L30.4260241,2.59201091 L30.4260241,20.3192836 Z M32.8661913,0.36972 C32.2591921,-0.108916364 31.5578722,-0.00184363636 31.2939265,0.0407018182 L2.26749945,0.0541745455 L2.17470008,0.0407018182 C1.90999367,-0.00184363636 1.20943446,-0.108916364 0.602435278,0.36972 C0.37804335,0.547701818 0,0.949756364 0,1.64466545 L0,20.7575018 C0,21.8651018 0.921908531,23.1556473 2.24544058,23.1556473 L10.1098072,23.1556473 L14.8266016,28.4936836 C14.8281229,28.4951018 14.8288835,28.4823382 14.8304048,28.4837564 L14.8334474,28.4802109 C14.8395326,28.4873018 14.8471391,28.4880109 14.8532243,28.4951018 C14.9117944,28.5582109 14.9741678,28.6177745 15.0456689,28.6730836 C15.0525148,28.6780473 15.0601213,28.6801745 15.0669672,28.6851382 C15.0905473,28.7028655 15.1164094,28.7163382 15.1407503,28.7319382 C15.202363,28.7723564 15.2647363,28.80852 15.3301523,28.8390109 C15.3605783,28.8531927 15.391765,28.8659564 15.4229516,28.8780109 C15.4906495,28.9042473 15.5583474,28.92552 15.6283273,28.9425382 C15.6564714,28.94892 15.6838548,28.9574291 15.7127595,28.9623927 C15.8108834,28.9808291 15.909768,28.9921745 16.0094133,28.9921745 L16.0101739,28.9921745 L16.0109346,28.9921745 C16.1105798,28.9921745 16.2094644,28.9808291 16.3075883,28.9623927 C16.336493,28.9574291 16.3638764,28.94892 16.3920205,28.9425382 C16.4612397,28.92552 16.5296983,28.9042473 16.5973962,28.8780109 C16.6285828,28.8652473 16.6590089,28.8531927 16.6901955,28.8390109 C16.7548508,28.80852 16.8172242,28.7723564 16.8788369,28.7319382 C16.9031777,28.7156291 16.9298005,28.7021564 16.9533807,28.6844291 C16.9602265,28.6794655 16.967833,28.67592 16.9739182,28.6709564 C17.04618,28.6163564 17.1085534,28.5553745 17.1663628,28.4915564 C17.172448,28.4844655 17.1808152,28.4802109 17.1869004,28.47312 L17.189943,28.4695745 C17.1907036,28.4681564 17.1922249,28.4951018 17.1937462,28.4936836 L21.9105406,23.1556473 L31.223186,23.1556473 C32.546718,23.1556473 33.4686266,21.8651018 33.4686266,20.7575018 L33.4686266,1.64466545 C33.4686266,0.949756364 33.0905832,0.547701818 32.8661913,0.36972 L32.8661913,0.36972 Z" id="Fill-1"></path>
                    </g>
                </g>
            </g>
        </g>
    </g>
</svg>