<?xml version="1.0" encoding="UTF-8" standalone="no"?>
<svg width="39px" height="32px" viewBox="0 0 39 32" version="1.1" xmlns="http://www.w3.org/2000/svg" xmlns:xlink="http://www.w3.org/1999/xlink">
    <!-- Generator: Sketch 3.8.3 (29802) - http://www.bohemiancoding.com/sketch -->
    <title>Group 17</title>
    <desc>Created with Sketch.</desc>
    <defs></defs>
    <g id="Page-1" stroke="none" stroke-width="1" fill="none" fill-rule="evenodd">
        <g id="Desktop-HD" transform="translate(-433.000000, -2215.000000)" fill="#CFD8DC">
            <g id="Twitter-1-Copy-2" transform="translate(29.000000, 1802.000000)">
                <g id="Like" transform="translate(354.000000, 413.000000)">
                    <g id="Page-1" transform="translate(50.202940, 0.000000)">
                        <g id="Group-17">
                            <path d="M3.18748824,28.32772 L10.3569462,28.32772 L10.3593368,13.4186291 L3.18748824,13.4186291 L3.18748824,28.32772 Z M11.3100052,31.3095382 L2.60656851,31.3095382 C1.19371435,31.3095382 0,30.23832 0,28.9710473 L0,13.09212 C0,11.8636109 1.13873017,10.4368109 2.60656851,10.4368109 L11.3100052,10.4368109 C12.4232354,10.4368109 13.546825,11.2583018 13.546825,13.09212 L13.546825,28.9710473 C13.546825,30.5864473 12.4232354,31.3095382 11.3100052,31.3095382 L11.3100052,31.3095382 Z" id="Fill-1"></path>
                            <path d="M29.546502,29.8186291 L27.8906018,29.8186291 C27.0100582,29.8186291 26.2968577,29.1507018 26.2968577,28.32772 C26.2968577,27.5047382 27.0100582,26.8368109 27.8906018,26.8368109 L29.546502,26.8368109 C29.6142361,26.8368109 31.2103708,26.8278655 31.5346978,26.0443927 C32.0104304,24.8941564 33.8551892,18.1522655 34.9787788,13.9016836 C35.0194193,13.54312 34.6185926,12.3682836 34.2504377,11.92772 L24.7031136,11.92772 C23.8225699,11.92772 23.1093695,11.2597927 23.1093695,10.4368109 C23.1093695,9.61382909 23.8225699,8.94590182 24.7031136,8.94590182 L34.5620147,8.94590182 C35.1102627,8.94590182 35.9230722,9.13077455 36.6856788,10.0119018 C37.7136437,11.19792 38.3670788,13.3284291 38.0849861,14.5696109 C37.7821747,15.7191018 35.208278,25.4234291 34.5070305,27.1208291 C33.6830648,29.1104473 31.4048076,29.8186291 29.546502,29.8186291" id="Fill-3"></path>
                            <path d="M12.7736998,15.7452673 C12.1401865,15.7452673 11.5401418,15.3881945 11.2923146,14.8037582 C10.9671908,14.0381764 11.3672206,13.1719582 12.1856082,12.8678127 L13.4677753,12.3914673 L16.8194192,6.83186727 C16.7827631,5.67566727 16.7636382,3.34090364 17.1556992,2.30024909 C17.6123069,1.09037636 19.2945038,0.0825218182 20.9862632,0.00574 C22.2285868,-0.0538963636 24.5299533,0.321067273 26.0934163,3.44974 C28.5708915,8.40999455 25.9834479,11.3947945 25.8718858,11.5192855 C25.3077004,12.1521764 24.3028447,12.2364127 23.6270972,11.70714 C22.9521466,11.1793582 22.8621001,10.23934 23.4262855,9.60794 C23.4621447,9.56246727 24.7849523,7.87550364 23.2055519,4.71179455 C22.8350064,3.97081273 22.2110556,3.06955818 21.3440588,2.98830364 C20.7997952,2.94283091 20.3057345,3.21492182 20.1383913,3.37221273 C20.0069075,3.90074 19.9511264,5.58919455 20.0204543,7.13526727 L20.0395792,7.56017636 L15.6910484,14.7746855 L13.3609945,15.6394127 C13.1681514,15.7109764 12.9697303,15.7452673 12.7736998,15.7452673" id="Fill-5"></path>
                            <path d="M19.0152002,30.1010818 C18.8335133,30.1010818 18.648639,30.0712636 18.4677491,30.0093909 C16.6500839,29.3884273 11.971648,27.7387364 11.971648,27.7387364 L13.0952376,24.9492455 C13.0968314,24.9492455 17.7529548,26.5907364 19.5626513,27.2094636 C20.3890076,27.4919909 20.8145373,28.3477727 20.5117259,29.1215545 C20.2758518,29.7253727 19.6654478,30.1010818 19.0152002,30.1010818" id="Fill-7"></path>
                            <path d="M29.4842663,29.8186291 L19.1249295,29.8186291 C18.2451827,29.8186291 17.5311853,29.1507018 17.5311853,28.32772 C17.5311853,27.5047382 18.2451827,26.8368109 19.1249295,26.8368109 L29.4842663,26.8368109 C30.364013,26.8368109 31.0780104,27.5047382 31.0780104,28.32772 C31.0780104,29.1507018 30.364013,29.8186291 29.4842663,29.8186291" id="Fill-9"></path>
                        </g>
                    </g>
                </g>
            </g>
        </g>
    </g>
</svg>